<svg xmlns="http://www.w3.org/2000/svg" xmlns:xlink="http://www.w3.org/1999/xlink" width="2048" zoomAndPan="magnify" viewBox="0 0 1536 1535.999932" height="2048" preserveAspectRatio="xMidYMid meet" version="1.0"><defs><clipPath id="53b40a397d"><path d="M 227 237 L 1382.101562 237 L 1382.101562 1311 L 227 1311 Z M 227 237 " clip-rule="nonzero"/></clipPath></defs><g clip-path="url(#53b40a397d)"><path fill="#fff7ed" d="M 675.453125 241.289062 C 658.757812 244.328125 628.042969 251.726562 607.191406 257.726562 C 586.34375 263.726562 544.347656 281.730469 513.875 297.726562 C 483.398438 313.726562 440.199219 342.265625 417.886719 361.15625 C 395.578125 380.046875 361.238281 415.667969 341.585938 440.332031 C 321.9375 464.988281 294.214844 509 279.984375 538.128906 C 265.753906 567.261719 248.039062 616.628906 240.628906 647.839844 C 231.105469 687.953125 227.203125 725.796875 227.328125 776.984375 C 227.453125 826.988281 231.40625 864.519531 240.121094 898.34375 C 247.058594 925.269531 260.15625 965.574219 269.234375 987.898438 C 278.308594 1010.222656 298.8125 1048.160156 314.804688 1072.199219 C 330.796875 1096.242188 362.421875 1134.128906 385.078125 1156.394531 C 407.734375 1178.652344 436.507812 1204.605469 449.019531 1214.050781 C 461.535156 1223.503906 498.101562 1243.832031 530.28125 1259.222656 C 562.460938 1274.617188 607.804688 1292.40625 631.042969 1298.75 C 661.75 1307.128906 698.179688 1310.367188 764.3125 1310.585938 C 840.507812 1310.847656 863.71875 1308.46875 906.890625 1295.988281 C 935.246094 1287.789062 983.515625 1268.097656 1014.152344 1252.242188 C 1044.792969 1236.386719 1087.710938 1208.738281 1109.539062 1190.808594 C 1131.363281 1172.886719 1165.675781 1137.566406 1185.789062 1112.332031 C 1205.894531 1087.089844 1234.128906 1042.464844 1248.527344 1013.167969 C 1262.929688 983.867188 1280.859375 936.488281 1288.378906 907.886719 C 1298.773438 868.355469 1302.050781 836.390625 1302.050781 774.617188 C 1302.050781 712.847656 1298.773438 680.882812 1288.378906 641.351562 C 1280.859375 612.746094 1262.863281 565.246094 1248.386719 535.789062 C 1233.914062 506.332031 1204.988281 460.738281 1184.105469 434.460938 C 1162.644531 407.457031 1123.460938 369.59375 1093.972656 347.375 C 1065.277344 325.753906 1022.546875 298.96875 999.019531 287.851562 C 975.488281 276.734375 934.992188 261.511719 909.035156 254.027344 C 876.425781 244.621094 837.695312 239.695312 783.816406 238.082031 C 740.910156 236.800781 692.148438 238.246094 675.453125 241.285156 M 673.300781 384.339844 C 659 387.414062 630.777344 396.132812 610.59375 403.710938 C 590.410156 411.296875 556.765625 428.609375 535.832031 442.195312 C 514.902344 455.78125 480.121094 485.835938 458.539062 508.992188 C 434.84375 534.410156 410.003906 570.25 395.824219 599.472656 C 382.914062 626.078125 368.46875 663.941406 363.722656 683.605469 C 358.976562 703.269531 355.257812 745.742188 355.460938 777.976562 C 355.714844 819.253906 360.160156 850.988281 370.496094 885.242188 C 378.566406 912 394.304688 949.976562 405.457031 969.644531 C 416.613281 989.308594 446.347656 1025.992188 471.519531 1051.15625 C 496.683594 1076.328125 533.371094 1106.101562 553.035156 1117.316406 C 572.699219 1128.53125 612.191406 1145.679688 640.796875 1155.417969 C 684.984375 1170.460938 703.554688 1173.125 764.3125 1173.140625 C 824.199219 1173.152344 844.273438 1170.363281 887.828125 1155.972656 C 916.433594 1146.519531 955.21875 1129.914062 974.011719 1119.066406 C 992.804688 1108.214844 1027.910156 1080.691406 1052.019531 1057.878906 C 1076.132812 1035.074219 1105.570312 1000.289062 1117.445312 980.578125 C 1129.324219 960.867188 1146.265625 923.941406 1155.105469 898.519531 C 1165.878906 867.539062 1172.402344 831.449219 1174.894531 789.082031 C 1177.714844 741.035156 1175.964844 715.71875 1167.605469 683.605469 C 1161.554688 660.363281 1147.519531 622.785156 1136.410156 600.089844 C 1124.914062 576.621094 1097.164062 538.441406 1072.023438 511.527344 C 1046.945312 484.667969 1008.828125 452.820312 983.839844 437.839844 C 959.636719 423.332031 920.820312 404.953125 897.582031 396.996094 C 865.09375 385.867188 837.292969 382.089844 777.3125 380.640625 C 734.410156 379.597656 687.601562 381.261719 673.300781 384.339844 M 744.808594 472.066406 C 730.507812 477.203125 709.355469 492.226562 697.796875 505.441406 C 686.238281 518.660156 674.90625 539.480469 672.617188 551.695312 C 670.328125 563.910156 670.011719 585.539062 671.914062 599.75 C 673.820312 613.960938 683.34375 636.027344 693.078125 648.785156 C 702.808594 661.542969 720.53125 676.058594 732.457031 681.042969 C 744.386719 686.03125 767.875 690.105469 784.660156 690.105469 C 805.4375 690.105469 823.976562 684.953125 842.753906 673.945312 C 861.136719 663.171875 874.871094 648.402344 883.953125 629.636719 C 891.449219 614.15625 897.582031 589.824219 897.582031 575.5625 C 897.582031 558.191406 891.429688 539.9375 878.957031 520.265625 C 868.4375 503.679688 850.746094 486.375 838.324219 480.527344 C 826.21875 474.816406 806.082031 468.480469 793.566406 466.4375 C 780.570312 464.320312 759.65625 466.730469 744.808594 472.066406 M 1430.652344 621.847656 C 1430.652344 636.773438 1433.035156 638.101562 1459.90625 638.101562 L 1489.160156 638.101562 L 1489.160156 787.621094 L 1521.664062 787.621094 L 1521.664062 638.101562 L 1547.664062 638.101562 C 1571.070312 638.101562 1573.667969 636.472656 1573.667969 621.847656 L 1573.667969 605.59375 L 1430.652344 605.59375 Z M 2581.300781 628.550781 C 2581.300781 642.960938 2577.667969 652.902344 2571.550781 655.25 C 2566.1875 657.308594 2561.800781 662.757812 2561.800781 667.355469 C 2561.800781 671.949219 2566.1875 677.398438 2571.550781 679.457031 C 2578.902344 682.28125 2581.300781 694.128906 2581.300781 727.609375 C 2581.300781 753.484375 2584.558594 775.273438 2589.105469 779.820312 C 2593.394531 784.109375 2605.09375 787.621094 2615.105469 787.621094 C 2628.972656 787.621094 2633.308594 784.523438 2633.308594 774.617188 C 2633.308594 767.46875 2629.234375 761.617188 2624.253906 761.617188 C 2619.273438 761.617188 2613.421875 756.988281 2611.25 751.332031 C 2609.082031 745.675781 2607.304688 727.851562 2607.304688 711.722656 C 2607.304688 687.855469 2609.730469 681.753906 2620.308594 678.988281 C 2627.457031 677.117188 2633.308594 671.882812 2633.308594 667.355469 C 2633.308594 662.824219 2627.457031 657.589844 2620.308594 655.71875 C 2610.347656 653.117188 2607.304688 646.851562 2607.304688 628.960938 C 2607.304688 609.933594 2604.894531 605.59375 2594.304688 605.59375 C 2583.761719 605.59375 2581.300781 609.933594 2581.300781 628.550781 M 972.015625 640.433594 C 961.113281 645.355469 944.296875 658.765625 934.636719 670.242188 C 920.503906 687.039062 917.089844 697.660156 917.109375 724.738281 C 917.121094 746.164062 921.5625 765.632812 929.34375 778.386719 C 936.058594 789.402344 952.542969 803.625 965.976562 810.003906 C 982.578125 817.882812 998.785156 820.46875 1016.566406 818.082031 C 1030.953125 816.152344 1050.292969 809.035156 1059.535156 802.257812 C 1068.78125 795.484375 1081.625 779.917969 1088.066406 767.65625 C 1095.910156 752.742188 1098.753906 736.945312 1096.675781 719.925781 C 1094.960938 705.929688 1088.042969 687.097656 1081.300781 678.066406 C 1074.566406 669.042969 1061.851562 656.28125 1053.046875 649.710938 C 1044.246094 643.136719 1026.875 636.351562 1014.445312 634.621094 C 1002.011719 632.898438 982.921875 635.511719 972.015625 640.433594 M 490.542969 650.492188 C 479.335938 657.324219 463.789062 676.265625 455.722656 692.933594 C 445.074219 714.933594 442.28125 729.054688 445.347656 745.382812 C 447.648438 757.675781 456.679688 776.21875 465.402344 786.585938 C 474.128906 796.953125 490.144531 809.117188 501 813.609375 C 512.515625 818.382812 533.488281 820.351562 551.292969 818.347656 C 575.578125 815.613281 586.136719 810.214844 602.796875 792.035156 C 614.324219 779.453125 625.71875 758.710938 628.121094 745.929688 C 630.511719 733.148438 630.5 714.828125 628.085938 705.214844 C 625.675781 695.601562 612.53125 676.566406 598.886719 662.914062 C 576.914062 640.949219 570.4375 638.101562 542.425781 638.125 C 522.820312 638.140625 503.074219 642.84375 490.542969 650.492188 M 1632.175781 655.390625 C 1626.8125 657.519531 1615.886719 665.203125 1607.898438 672.46875 C 1599.90625 679.738281 1591.527344 695.503906 1589.277344 707.507812 C 1586.949219 719.917969 1588.691406 737.796875 1593.320312 748.976562 C 1597.800781 759.789062 1607.566406 772.90625 1615.015625 778.128906 C 1622.464844 783.347656 1639.726562 787.621094 1653.355469 787.621094 C 1666.988281 787.621094 1685.203125 782.992188 1693.839844 777.335938 C 1702.472656 771.679688 1712.832031 757.039062 1716.871094 744.8125 C 1720.90625 732.582031 1722.371094 714.167969 1720.113281 703.902344 C 1717.859375 693.636719 1709.269531 678.90625 1701.035156 671.164062 C 1692.796875 663.421875 1676.121094 655.839844 1663.984375 654.3125 C 1651.855469 652.777344 1637.539062 653.273438 1632.175781 655.390625 M 1972.820312 660.132812 C 1961.730469 665.097656 1950.765625 674.109375 1948.445312 680.167969 C 1946.125 686.226562 1944.21875 692.394531 1944.21875 693.890625 C 1944.21875 695.386719 1951.21875 696.609375 1959.773438 696.609375 C 1968.332031 696.609375 1977.015625 692.21875 1979.074219 686.855469 C 1981.136719 681.492188 1990.308594 677.105469 1999.476562 677.105469 C 2008.640625 677.105469 2017.867188 681.617188 2019.984375 687.136719 C 2022.105469 692.65625 2022.242188 698.765625 2020.285156 700.714844 C 2018.335938 702.667969 2004.125 707.101562 1988.703125 710.566406 C 1973.277344 714.03125 1955.496094 721.53125 1949.191406 727.246094 C 1942.886719 732.960938 1937.71875 744.03125 1937.71875 751.863281 C 1937.71875 759.699219 1943.066406 770.945312 1949.609375 776.859375 C 1956.148438 782.777344 1969.5 787.621094 1979.285156 787.621094 C 1989.066406 787.621094 2002.738281 784.589844 2009.65625 780.890625 C 2018.320312 776.25 2022.230469 776.25 2022.230469 780.890625 C 2022.230469 784.589844 2029.839844 787.621094 2039.152344 787.621094 L 2056.066406 787.621094 L 2053.777344 732.589844 C 2052.191406 694.613281 2048.433594 674.519531 2041.648438 667.730469 C 2036.230469 662.316406 2023.066406 656.367188 2012.394531 654.496094 C 2001.710938 652.628906 1983.90625 655.164062 1972.820312 660.132812 M 2133.300781 657.121094 C 2128.246094 660.320312 2114.351562 661.351562 2102.421875 659.421875 L 2080.738281 655.898438 L 2080.738281 787.621094 L 2096.988281 787.621094 C 2112.734375 787.621094 2113.242188 786.234375 2113.242188 743.414062 C 2113.242188 717.695312 2116.503906 695.945312 2121.042969 691.40625 C 2125.332031 687.117188 2134.109375 683.605469 2140.542969 683.605469 C 2148.691406 683.605469 2152.246094 678.671875 2152.246094 667.355469 C 2152.246094 658.414062 2150.054688 651.148438 2147.371094 651.199219 C 2144.683594 651.25 2138.359375 653.917969 2133.300781 657.121094 M 2459.359375 657.578125 C 2451.285156 660.957031 2441.3125 671.109375 2437.199219 680.140625 C 2430.996094 693.753906 2431.710938 698.757812 2441.398438 709.460938 C 2447.820312 716.550781 2466.335938 726.109375 2482.542969 730.683594 C 2498.75 735.261719 2513.148438 742.433594 2514.546875 746.617188 C 2515.941406 750.804688 2510.703125 757.652344 2502.910156 761.824219 C 2491.136719 768.125 2485.605469 767.097656 2470.273438 755.757812 C 2460.121094 748.257812 2447.308594 742.113281 2441.792969 742.113281 C 2436.289062 742.113281 2431.78125 746.285156 2431.78125 751.390625 C 2431.78125 756.5 2439.492188 766.738281 2448.914062 774.144531 C 2459.117188 782.179688 2475.605469 787.621094 2489.71875 787.621094 C 2502.746094 787.621094 2520.066406 782.953125 2528.214844 777.246094 C 2539.273438 769.496094 2542.523438 761.726562 2541.035156 746.566406 C 2539.652344 732.425781 2534.113281 723.929688 2522.792969 718.582031 C 2513.855469 714.347656 2497.765625 708.335938 2487.039062 705.214844 C 2476.3125 702.101562 2467.539062 695.230469 2467.539062 689.949219 C 2467.539062 684.671875 2474.6875 679.347656 2483.425781 678.113281 C 2492.882812 676.78125 2502.53125 680.277344 2507.277344 686.757812 C 2511.769531 692.910156 2521.632812 696.71875 2529.90625 695.503906 L 2544.574219 693.355469 L 2528.808594 675.472656 C 2520.136719 665.636719 2504.265625 656.203125 2493.542969 654.507812 C 2482.816406 652.816406 2467.433594 654.195312 2459.359375 657.578125 M 2888.84375 657.363281 C 2881.011719 660.683594 2870.238281 670.140625 2864.910156 678.378906 C 2859.578125 686.617188 2853.304688 701.152344 2850.964844 710.683594 C 2848.324219 721.402344 2850.757812 736.554688 2857.335938 750.414062 C 2863.179688 762.734375 2875.277344 776.144531 2884.210938 780.214844 C 2893.148438 784.292969 2910.394531 787.621094 2922.539062 787.621094 C 2936.164062 787.621094 2951.234375 781.929688 2961.882812 772.777344 C 2974.363281 762.039062 2980.058594 749.71875 2982.484375 728.203125 C 2985.421875 702.144531 2983.535156 695.917969 2967.21875 677.8125 C 2955 664.253906 2940.78125 656.144531 2925.847656 654.234375 C 2913.335938 652.628906 2896.6875 654.039062 2888.84375 657.363281 M 1738.757812 668.980469 C 1740.65625 675.238281 1749.8125 704.667969 1759.113281 734.382812 C 1773.917969 781.71875 1777.738281 788.164062 1789.902344 786.390625 C 1800.847656 784.796875 1806.40625 775.46875 1816.125 742.414062 C 1824.433594 714.113281 1830.089844 703.53125 1833.488281 709.910156 C 1836.265625 715.109375 1842.121094 734.722656 1846.515625 753.488281 C 1853.332031 782.605469 1856.722656 787.621094 1869.648438 787.621094 C 1882.292969 787.621094 1886.457031 781.988281 1894.929688 753.488281 C 1900.507812 734.722656 1909.347656 705.46875 1914.582031 688.480469 C 1924.074219 657.667969 1924.066406 657.601562 1908.71875 657.601562 C 1895.535156 657.601562 1891.542969 663.402344 1880.730469 698.234375 L 1868.113281 738.863281 L 1856.347656 698.234375 C 1846.628906 664.6875 1842.140625 657.601562 1830.640625 657.601562 C 1819.3125 657.601562 1814.203125 665.195312 1803.3125 698.234375 L 1789.925781 738.863281 L 1778.246094 698.234375 C 1768.089844 662.902344 1764.527344 657.601562 1750.941406 657.601562 C 1739.078125 657.601562 1736.144531 660.347656 1738.757812 668.980469 M 2171.75 667.355469 C 2171.75 674.71875 2179.691406 677.105469 2204.253906 677.105469 C 2222.128906 677.105469 2236.757812 678.976562 2236.757812 681.257812 C 2236.757812 683.539062 2220.667969 703.738281 2201.003906 726.140625 C 2181.335938 748.542969 2165.246094 771.648438 2165.246094 777.496094 C 2165.246094 786.671875 2173.042969 787.867188 2222.058594 786.246094 C 2269.425781 784.679688 2279.214844 782.535156 2280.976562 773.332031 C 2282.726562 764.175781 2276.839844 761.953125 2246.617188 760.328125 L 2210.15625 758.367188 L 2246.117188 716.109375 C 2265.898438 692.871094 2282.125 670.199219 2282.171875 665.726562 C 2282.238281 659.859375 2266.925781 657.601562 2227.003906 657.601562 C 2182.222656 657.601562 2171.75 659.449219 2171.75 667.355469 M 2295.296875 662.476562 C 2295.316406 665.15625 2305.433594 694.488281 2317.785156 727.648438 C 2330.128906 760.816406 2338.582031 792.261719 2336.558594 797.535156 C 2334.535156 802.804688 2327.683594 807.121094 2321.332031 807.121094 C 2314.980469 807.121094 2308.253906 812.972656 2306.382812 820.125 C 2303.496094 831.175781 2306.1875 833.125 2324.332031 833.125 C 2336.070312 833.125 2348.84375 829.308594 2352.714844 824.648438 C 2356.582031 819.992188 2371.566406 783.179688 2386.011719 742.847656 C 2400.460938 702.523438 2412.28125 666.839844 2412.28125 663.5625 C 2412.28125 660.289062 2405.53125 657.601562 2397.28125 657.601562 C 2384.152344 657.601562 2380.796875 663.34375 2370.347656 703.617188 C 2362.367188 734.382812 2356.582031 746.769531 2352.882812 740.996094 C 2349.832031 736.242188 2342.550781 715.539062 2336.699219 694.980469 C 2327.59375 663 2323.835938 657.601562 2310.660156 657.601562 C 2302.195312 657.601562 2295.277344 659.800781 2295.296875 662.476562 M 2666.457031 720.421875 C 2676.832031 754.964844 2685.316406 784.21875 2685.316406 785.429688 C 2685.316406 786.636719 2692.089844 787.621094 2700.367188 787.621094 C 2713.320312 787.621094 2717.234375 781.515625 2728.46875 743.738281 L 2741.523438 699.859375 L 2754.382812 742.113281 C 2764.464844 775.269531 2770.222656 784.804688 2781.125 786.390625 C 2793.289062 788.164062 2797.109375 781.71875 2811.914062 734.382812 C 2818.75 712.597656 2825.535156 690.796875 2832.269531 668.980469 C 2834.882812 660.347656 2831.949219 657.601562 2820.085938 657.601562 C 2806.5 657.601562 2802.9375 662.902344 2792.78125 698.234375 L 2781.097656 738.863281 L 2767.714844 698.234375 C 2756.824219 665.195312 2751.714844 657.601562 2740.382812 657.601562 C 2728.878906 657.601562 2724.417969 664.664062 2714.765625 698.234375 L 2703.074219 738.863281 L 2690.710938 698.234375 C 2680.089844 663.328125 2676.183594 657.601562 2662.972656 657.601562 L 2647.597656 657.601562 Z M 1633.625 687.226562 C 1623.550781 694.28125 1619.175781 703.984375 1619.175781 719.261719 C 1619.175781 731.320312 1623.769531 745.78125 1629.386719 751.402344 C 1635.011719 757.019531 1646.542969 761.617188 1655.027344 761.617188 C 1663.589844 761.617188 1674.945312 755.191406 1680.5625 747.164062 C 1686.128906 739.21875 1690.683594 726.054688 1690.683594 717.910156 C 1690.683594 709.773438 1684.832031 697.257812 1677.683594 690.105469 C 1670.53125 682.957031 1660.941406 677.105469 1656.378906 677.105469 C 1651.808594 677.105469 1641.570312 681.660156 1633.625 687.226562 M 2893.34375 690.105469 C 2886.191406 697.257812 2880.34375 709.773438 2880.34375 717.910156 C 2880.34375 726.050781 2884.898438 739.21875 2890.464844 747.164062 C 2896.027344 755.117188 2907.273438 761.617188 2915.460938 761.617188 C 2923.636719 761.617188 2935.175781 756.265625 2941.09375 749.726562 C 2947.007812 743.1875 2951.851562 728.726562 2951.851562 717.59375 C 2951.851562 704.039062 2947.074219 694 2937.398438 687.226562 C 2929.457031 681.660156 2919.21875 677.105469 2914.648438 677.105469 C 2910.078125 677.105469 2900.496094 682.957031 2893.34375 690.105469 M 710.109375 787.9375 C 698.289062 805.996094 684.402344 830.855469 679.25 843.195312 C 670.582031 863.933594 671.058594 868.433594 685.515625 903.003906 C 694.117188 923.566406 707.136719 962.332031 714.449219 989.144531 C 721.765625 1015.960938 730.96875 1050.339844 734.910156 1065.53125 C 741.976562 1092.835938 742.398438 1093.160156 771.066406 1093.160156 C 794.601562 1093.160156 800.066406 1090.960938 800.066406 1081.523438 C 800.066406 1075.125 809.175781 1040.75 820.304688 1005.136719 C 831.433594 969.527344 849.304688 923.019531 860.019531 901.792969 C 875.152344 871.800781 878.820312 857.230469 876.476562 836.449219 C 874.820312 821.730469 865.335938 797.417969 855.402344 782.40625 L 837.34375 755.117188 L 731.601562 755.117188 Z M 1437.152344 894.882812 C 1437.152344 939.667969 1438.996094 950.140625 1446.902344 950.140625 C 1453.714844 950.140625 1456.652344 943.277344 1456.652344 927.386719 C 1456.652344 905.8125 1457.804688 904.636719 1478.945312 904.636719 C 1491.199219 904.636719 1505.828125 900.039062 1511.449219 894.421875 C 1517.066406 888.800781 1521.664062 879.015625 1521.664062 872.675781 C 1521.664062 866.339844 1516.3125 856.300781 1509.773438 850.386719 C 1502.285156 843.605469 1486.65625 839.625 1467.515625 839.625 L 1437.152344 839.625 Z M 1788.199219 894.882812 C 1788.199219 927.386719 1790.875 950.140625 1794.699219 950.140625 C 1798.273438 950.140625 1801.199219 940.144531 1801.199219 927.921875 C 1801.199219 915.699219 1802.972656 901.074219 1805.144531 895.417969 C 1807.316406 889.761719 1814.628906 885.132812 1821.398438 885.132812 C 1831.832031 885.132812 1833.703125 890.078125 1833.703125 917.636719 C 1833.703125 942.195312 1836.089844 950.140625 1843.453125 950.140625 C 1850.929688 950.140625 1853.207031 941.859375 1853.207031 914.613281 C 1853.207031 885.742188 1850.769531 877.785156 1840.203125 872.128906 C 1830.96875 867.191406 1823.4375 867.191406 1814.203125 872.128906 C 1802.527344 878.378906 1801.199219 877.070312 1801.199219 859.355469 C 1801.199219 848.507812 1798.273438 839.625 1794.699219 839.625 C 1790.875 839.625 1788.199219 862.378906 1788.199219 894.882812 M 2204.253906 858.816406 C 2204.253906 876.019531 2202.53125 878.203125 2192.875 873.234375 C 2186.621094 870.019531 2177.113281 868.789062 2171.75 870.503906 C 2166.386719 872.222656 2158.34375 878.234375 2153.871094 883.871094 C 2149.40625 889.507812 2145.746094 902.125 2145.746094 911.914062 C 2145.746094 921.699219 2150.28125 934.253906 2155.835938 939.796875 C 2162.492188 946.453125 2175.199219 949.261719 2193.214844 948.058594 L 2220.503906 946.234375 L 2220.503906 895.097656 C 2220.503906 859.96875 2217.964844 843.109375 2212.378906 841.25 C 2207.035156 839.46875 2204.253906 845.484375 2204.253906 858.816406 M 1071.902344 868.996094 C 1070.046875 870.851562 1042.503906 875.503906 1010.6875 879.339844 C 966.996094 884.597656 949.097656 889.742188 937.566406 900.34375 C 929.167969 908.066406 915.105469 928.511719 906.316406 945.777344 C 897.527344 963.046875 884.472656 996.152344 877.308594 1019.34375 C 870.144531 1042.53125 865.199219 1065.941406 866.304688 1071.347656 C 867.898438 1079.085938 880.800781 1074.925781 926.832031 1051.839844 C 959.011719 1035.699219 997.289062 1012.257812 1011.890625 999.734375 C 1026.492188 987.222656 1049.113281 961.433594 1062.164062 942.429688 C 1075.210938 923.429688 1087.761719 898.382812 1090.058594 886.757812 C 1093.238281 870.675781 1091.96875 865.628906 1084.753906 865.628906 C 1079.539062 865.628906 1073.753906 867.144531 1071.902344 868.996094 M 1548.589844 873.058594 C 1538.21875 876.894531 1534.378906 882.804688 1535.835938 892.671875 C 1537.191406 901.898438 1545.203125 909.230469 1558.945312 913.839844 C 1570.511719 917.714844 1580.136719 923.8125 1580.332031 927.386719 C 1580.527344 930.964844 1574.714844 934.824219 1567.429688 935.96875 C 1560.132812 937.105469 1554.167969 934.917969 1554.167969 931.09375 C 1554.167969 927.265625 1549.777344 924.136719 1544.414062 924.136719 C 1539.050781 924.136719 1534.664062 926.476562 1534.664062 929.339844 C 1534.664062 932.199219 1538.175781 938.050781 1542.464844 942.339844 C 1546.757812 946.628906 1558.101562 950.140625 1567.675781 950.140625 C 1577.246094 950.140625 1588.601562 945.894531 1592.910156 940.703125 C 1597.222656 935.507812 1599.769531 926.183594 1598.574219 919.984375 C 1597.34375 913.59375 1587.25 906.332031 1575.28125 903.238281 C 1563.671875 900.226562 1554.167969 894.597656 1554.167969 890.722656 C 1554.167969 886.132812 1562.5 885.25 1578.15625 888.1875 C 1598.816406 892.0625 1601.039062 891.359375 1594.191406 883.109375 C 1589.824219 877.84375 1581.113281 872.195312 1574.839844 870.550781 C 1568.566406 868.90625 1556.753906 870.042969 1548.589844 873.058594 M 1718.496094 872.734375 C 1710.816406 875.578125 1701.347656 883.851562 1697.453125 891.132812 C 1693.558594 898.414062 1692.238281 911.816406 1694.527344 920.925781 C 1696.808594 930.035156 1704.003906 940.332031 1710.507812 943.808594 C 1717.007812 947.285156 1728.167969 950.140625 1735.300781 950.140625 C 1742.429688 950.140625 1753 945.402344 1758.789062 939.617188 C 1764.578125 933.824219 1767.707031 927.484375 1765.742188 925.523438 C 1763.78125 923.558594 1754.777344 925.90625 1745.742188 930.75 C 1731.550781 938.339844 1727.890625 938.121094 1718.90625 929.136719 C 1711.785156 922.023438 1709.875 913.261719 1712.851562 901.402344 C 1716.953125 885.066406 1718.753906 884.339844 1744.425781 888.675781 C 1768.3125 892.710938 1770.644531 892.0625 1763.457031 883.402344 C 1758.949219 877.976562 1750.136719 872.195312 1743.863281 870.550781 C 1737.589844 868.914062 1726.171875 869.894531 1718.496094 872.734375 M 1893.542969 872.910156 C 1885.601562 875.847656 1876.03125 885.003906 1872.265625 893.25 C 1867.566406 903.574219 1867.507812 913.714844 1872.089844 925.761719 C 1876.09375 936.292969 1885.515625 944.972656 1895.707031 947.535156 C 1905.039062 949.875 1919.390625 948.730469 1927.609375 944.984375 C 1935.824219 941.242188 1944.515625 930.320312 1946.929688 920.71875 C 1949.71875 909.609375 1947.808594 897.914062 1941.683594 888.566406 C 1936.382812 880.476562 1926.640625 872.449219 1920.015625 870.71875 C 1913.398438 868.984375 1901.480469 869.972656 1893.542969 872.910156 M 2073.15625 874.660156 C 2062.207031 880.085938 2057.4375 888.707031 2056.011719 905.605469 C 2054.746094 920.710938 2057.789062 932.769531 2064.601562 939.582031 C 2070.414062 945.390625 2081.710938 950.140625 2089.707031 950.140625 C 2097.710938 950.140625 2109.933594 945.992188 2116.863281 940.921875 C 2123.796875 935.851562 2127.152344 929.378906 2124.3125 926.542969 C 2121.472656 923.707031 2113.546875 924.878906 2106.699219 929.15625 C 2099.855469 933.425781 2089.746094 935.203125 2084.246094 933.089844 C 2078.746094 930.976562 2074.234375 925.171875 2074.234375 920.191406 C 2074.234375 913.792969 2082.816406 911.136719 2103.488281 911.136719 C 2119.578125 911.136719 2132.742188 908.859375 2132.742188 906.085938 C 2132.742188 903.308594 2128.445312 894.890625 2123.195312 887.386719 C 2117.933594 879.886719 2107.941406 872.261719 2100.988281 870.441406 C 2094.03125 868.621094 2081.503906 870.519531 2073.15625 874.660156 M 2257.644531 872.890625 C 2249.734375 875.816406 2243.257812 881.464844 2243.257812 885.4375 C 2243.257812 890.035156 2250.136719 891.160156 2262.144531 888.519531 C 2272.738281 886.191406 2282.839844 887.304688 2285.160156 891.0625 C 2287.449219 894.773438 2281.214844 899.6875 2271.152344 902.09375 C 2261.175781 904.480469 2249.355469 909.308594 2244.882812 912.824219 C 2240.417969 916.347656 2236.757812 924.664062 2236.757812 931.308594 C 2236.757812 938.671875 2242.464844 944.484375 2251.382812 946.195312 C 2259.433594 947.734375 2273.324219 948.699219 2282.261719 948.339844 C 2291.203125 947.980469 2300.40625 944.894531 2302.726562 941.480469 C 2305.042969 938.070312 2305.570312 923.382812 2303.898438 908.855469 C 2302.234375 894.324219 2299.652344 880.472656 2298.164062 878.066406 C 2296.683594 875.667969 2290.195312 872.320312 2283.746094 870.636719 C 2277.304688 868.953125 2265.554688 869.964844 2257.644531 872.890625 M 2347.269531 870.484375 C 2341.90625 872.214844 2333.867188 878.234375 2329.394531 883.871094 C 2324.929688 889.507812 2321.269531 902.269531 2321.269531 912.226562 C 2321.269531 924.273438 2326.605469 933.835938 2337.203125 940.777344 C 2346.582031 946.921875 2358.617188 949.476562 2366.457031 946.992188 C 2373.925781 944.621094 2379.777344 945.667969 2379.777344 949.378906 C 2379.777344 953.019531 2374.730469 958.820312 2368.566406 962.269531 C 2361.3125 966.328125 2353.089844 966.257812 2345.257812 962.0625 C 2338.597656 958.5 2331.410156 957.335938 2329.269531 959.476562 C 2327.132812 961.613281 2328.75 966.722656 2332.859375 970.832031 C 2336.972656 974.949219 2349.304688 978.308594 2360.273438 978.308594 C 2371.238281 978.308594 2383.675781 974.84375 2387.914062 970.605469 C 2392.148438 966.371094 2396.796875 942.046875 2398.238281 916.550781 C 2400.703125 872.949219 2400.089844 870.402344 2387.988281 873.566406 C 2380.914062 875.417969 2371.050781 874.777344 2366.070312 872.136719 C 2361.09375 869.496094 2352.636719 868.757812 2347.273438 870.484375 M 2434.6875 873.847656 C 2427.726562 877.65625 2419.878906 883.949219 2417.253906 887.828125 C 2414.625 891.710938 2412.4375 902.476562 2412.378906 911.753906 C 2412.324219 921.03125 2417.628906 933.464844 2424.171875 939.382812 C 2430.710938 945.296875 2443.417969 950.140625 2452.417969 950.140625 C 2461.414062 950.140625 2473.617188 944.789062 2479.53125 938.25 C 2485.449219 931.710938 2490.246094 919.28125 2490.191406 910.621094 C 2490.140625 901.964844 2487.886719 891.414062 2485.179688 887.167969 C 2482.484375 882.914062 2472.867188 876.628906 2463.8125 873.183594 C 2452.867188 869.023438 2443.113281 869.246094 2434.6875 873.847656 M 2529.296875 870.484375 C 2523.933594 872.214844 2515.890625 878.234375 2511.417969 883.871094 C 2506.953125 889.507812 2503.292969 900.871094 2503.292969 909.128906 C 2503.292969 917.382812 2509.398438 930.242188 2516.859375 937.703125 C 2526.359375 947.203125 2535.121094 950.089844 2546.113281 947.332031 C 2557.238281 944.535156 2561.800781 946.105469 2561.800781 952.726562 C 2561.800781 957.855469 2558.148438 963.324219 2553.675781 964.863281 C 2549.203125 966.40625 2538.957031 964.714844 2530.894531 961.101562 C 2522.835938 957.488281 2514.253906 956.519531 2511.820312 958.941406 C 2509.398438 961.375 2510.773438 966.722656 2514.882812 970.832031 C 2519 974.949219 2531.648438 978.308594 2543 978.308594 C 2555.613281 978.308594 2567.078125 973.617188 2572.476562 966.238281 C 2577.742188 959.027344 2581.304688 937.320312 2581.304688 912.382812 C 2581.304688 874.878906 2580.066406 870.933594 2569.222656 873.773438 C 2562.582031 875.511719 2553.074219 874.777344 2548.097656 872.136719 C 2543.117188 869.496094 2534.660156 868.757812 2529.296875 870.484375 M 2659.3125 870.140625 C 2653.949219 872.058594 2645.910156 878.234375 2641.4375 883.871094 C 2636.96875 889.507812 2633.308594 901.882812 2633.308594 911.371094 C 2633.308594 920.855469 2638.660156 933.464844 2645.199219 939.382812 C 2651.738281 945.296875 2664.539062 950.140625 2673.65625 950.140625 C 2682.769531 950.140625 2693.925781 945.679688 2698.449219 940.234375 C 2702.972656 934.785156 2704.785156 928.441406 2702.484375 926.140625 C 2700.183594 923.839844 2690.933594 925.890625 2681.921875 930.714844 C 2670.410156 936.878906 2663.511719 937.4375 2658.675781 932.601562 C 2654.894531 928.816406 2652.753906 917.316406 2653.929688 907.054688 C 2655.894531 889.882812 2658.027344 888.5 2680.441406 889.8125 C 2693.851562 890.597656 2704.820312 888.335938 2704.820312 884.773438 C 2704.820312 881.21875 2697.316406 875.457031 2688.144531 871.96875 C 2678.972656 868.476562 2670.929688 865.863281 2670.265625 866.144531 C 2669.605469 866.421875 2664.675781 868.222656 2659.3125 870.140625 M 2835.390625 871.785156 C 2830.722656 874.671875 2821.367188 875.59375 2814.613281 873.828125 C 2803.5625 870.933594 2802.332031 874.59375 2802.332031 910.375 C 2802.332031 941.390625 2804.476562 950.140625 2812.082031 950.140625 C 2819.46875 950.140625 2821.835938 942.144531 2821.835938 917.179688 C 2821.835938 886.726562 2822.945312 884.382812 2836.460938 886.300781 C 2848.941406 888.078125 2851.382812 892.914062 2853.070312 919.261719 C 2854.15625 936.25 2857.5 950.140625 2860.488281 950.140625 C 2863.484375 950.140625 2867.699219 943.113281 2869.851562 934.527344 C 2872.007812 925.929688 2871.9375 909.738281 2869.695312 898.535156 C 2867.457031 887.335938 2860.730469 875.550781 2854.753906 872.351562 C 2848.78125 869.152344 2840.0625 868.898438 2835.390625 871.785156 M 2912.847656 870.5625 C 2907.484375 872.246094 2899.441406 878.234375 2894.96875 883.871094 C 2890.503906 889.507812 2886.84375 901.882812 2886.84375 911.371094 C 2886.84375 920.855469 2892.195312 933.464844 2898.734375 939.382812 C 2905.273438 945.296875 2918.074219 950.140625 2927.1875 950.140625 C 2936.300781 950.140625 2947.457031 945.679688 2951.980469 940.234375 C 2956.507812 934.785156 2958.191406 928.3125 2955.734375 925.851562 C 2953.277344 923.394531 2945.3125 925.09375 2938.042969 929.628906 C 2927.851562 935.996094 2922.714844 936.132812 2915.589844 930.214844 C 2910.507812 925.996094 2906.347656 919.976562 2906.347656 916.84375 C 2906.347656 913.703125 2919.511719 911.136719 2935.601562 911.136719 C 2954.726562 911.136719 2964.820312 908.320312 2964.757812 903.007812 C 2964.699219 898.542969 2962.449219 891.410156 2959.742188 887.167969 C 2957.046875 882.914062 2947.582031 876.757812 2938.71875 873.46875 C 2929.851562 870.1875 2918.210938 868.875 2912.847656 870.5625 M 445.054688 887.855469 C 447.519531 897.679688 456.839844 917.277344 465.765625 931.417969 C 474.691406 945.558594 492.277344 968.503906 504.851562 982.425781 C 517.429688 996.34375 541.839844 1016.792969 559.101562 1027.871094 C 576.359375 1038.949219 608.753906 1055.167969 631.085938 1063.917969 L 671.683594 1079.832031 L 667.320312 1046.9375 C 664.921875 1028.851562 657.25 998.800781 650.273438 980.15625 C 643.300781 961.511719 629.132812 932.925781 618.804688 916.628906 L 600.015625 887.003906 L 530.289062 882.335938 C 491.941406 879.769531 456.066406 875.941406 450.566406 873.828125 C 442.488281 870.726562 441.433594 873.410156 445.054688 887.855469 M 1612.675781 874.359375 C 1612.675781 875.589844 1618.609375 893.851562 1625.863281 914.9375 C 1637.597656 949.050781 1637.960938 954.085938 1629.113281 960.554688 C 1623.648438 964.554688 1619.175781 969.902344 1619.175781 972.4375 C 1619.175781 974.972656 1625.753906 976.113281 1633.800781 974.972656 C 1645.632812 973.289062 1651.796875 963.273438 1666.058594 922.511719 C 1679.570312 883.898438 1681.589844 872.128906 1674.726562 872.128906 C 1669.796875 872.128906 1661.542969 884.566406 1656.386719 899.757812 L 1647.003906 927.386719 L 1638.5625 899.757812 C 1633.917969 884.566406 1626.195312 872.128906 1621.398438 872.128906 C 1616.601562 872.128906 1612.675781 873.136719 1612.675781 874.359375 M 1963.722656 924.597656 C 1963.722656 966.082031 1965.625 976.144531 1973.472656 976.144531 C 1979.265625 976.144531 1983.222656 970.175781 1983.222656 961.453125 C 1983.222656 949.25 1986.738281 946.773438 2004.007812 946.824219 C 2019.941406 946.878906 2027.15625 942.71875 2034.886719 929.011719 C 2043.972656 912.917969 2043.988281 909.355469 2034.996094 893.257812 C 2026.5 878.046875 2020.445312 875.207031 1994.367188 874.21875 L 1963.722656 873.058594 Z M 2721.070312 878.632812 C 2723.28125 882.207031 2733.921875 885.132812 2744.714844 885.132812 L 2764.339844 885.132812 L 2741.082031 912.304688 C 2728.285156 927.25 2717.820312 941.878906 2717.820312 944.808594 C 2717.820312 947.742188 2733.910156 950.140625 2753.574219 950.140625 C 2773.242188 950.140625 2789.328125 947.390625 2789.328125 944.03125 C 2789.328125 940.667969 2778.890625 937.015625 2766.121094 935.902344 L 2742.914062 933.890625 L 2766.121094 906.851562 C 2778.890625 891.984375 2789.328125 878.085938 2789.328125 875.972656 C 2789.328125 873.859375 2773.066406 872.128906 2753.191406 872.128906 C 2730.757812 872.128906 2718.574219 874.59375 2721.070312 878.632812 " fill-opacity="1" fill-rule="evenodd"/></g></svg>